<svg width="25" height="24" viewBox="0 0 25 24" fill="none" xmlns="http://www.w3.org/2000/svg">
<path d="M16.0306 18.9694C16.1003 19.039 16.1556 19.1218 16.1933 19.2128C16.231 19.3039 16.2504 19.4014 16.2504 19.5C16.2504 19.5985 16.231 19.6961 16.1933 19.7872C16.1556 19.8782 16.1003 19.9609 16.0306 20.0306C15.961 20.1003 15.8782 20.1556 15.7872 20.1933C15.6961 20.231 15.5986 20.2504 15.5 20.2504C15.4015 20.2504 15.3039 20.231 15.2128 20.1933C15.1218 20.1556 15.0391 20.1003 14.9694 20.0306L7.46938 12.5306C7.39965 12.461 7.34433 12.3782 7.30659 12.2872C7.26885 12.1961 7.24942 12.0986 7.24942 12C7.24942 11.9014 7.26885 11.8038 7.30659 11.7128C7.34433 11.6217 7.39965 11.539 7.46938 11.4694L14.9694 3.96936C15.1101 3.82863 15.301 3.74957 15.5 3.74957C15.699 3.74957 15.8899 3.82863 16.0306 3.96936C16.1714 4.1101 16.2504 4.30097 16.2504 4.49999C16.2504 4.69901 16.1714 4.88988 16.0306 5.03061L9.06032 12L16.0306 18.9694Z" fill="#28292C"/>
</svg>
