<svg width="78" height="24" viewBox="0 0 78 24" fill="none" xmlns="http://www.w3.org/2000/svg">
<path d="M73.2762 5.53894H74.9395V16.1379H73.2762V13.6069H69.2084V12.2509H73.2762V10.0091H69.4435C68.3226 12.504 65.9361 14.3843 62.7 15.4329L61.9949 14.1131C65.6107 12.956 68.0333 10.7504 68.3587 8.02043H62.8084V6.68257H70.1305C70.1305 7.36958 70.0581 8.03851 69.8954 8.67127H73.2762V5.53894ZM64.761 21.0555V16.1379H66.4243V19.6995L70.0589 19.6995V21.0555H64.761Z" fill="#28292C"/>
<path fill-rule="evenodd" clip-rule="evenodd" d="M77.0536 17.4676C77.3237 17.7377 77.3237 18.1756 77.0536 18.4456L75.7891 19.7102H76.5646C76.9465 19.7102 77.2562 20.0198 77.2562 20.4018C77.2562 20.7837 76.9465 21.0934 76.5646 21.0934H75.7891L77.0536 22.3579C77.3237 22.628 77.3237 23.0659 77.0536 23.336C76.7835 23.6061 76.3456 23.6061 76.0756 23.336L74.811 22.0714V22.8469C74.811 23.2289 74.5014 23.5385 74.1194 23.5385C73.7375 23.5385 73.4278 23.2289 73.4278 22.8469V22.0714L72.1633 23.336C71.8932 23.6061 71.4553 23.6061 71.1852 23.336C70.9151 23.0659 70.9151 22.628 71.1852 22.3579L72.4498 21.0934H71.6743C71.2923 21.0934 70.9827 20.7837 70.9827 20.4018C70.9827 20.0198 71.2923 19.7102 71.6743 19.7102H72.4498L71.1852 18.4456C70.9151 18.1756 70.9151 17.7377 71.1852 17.4676C71.4553 17.1975 71.8932 17.1975 72.1633 17.4676L73.4278 18.7321L73.4278 17.9566C73.4278 17.5747 73.7375 17.265 74.1194 17.265C74.5014 17.265 74.811 17.5747 74.811 17.9566L74.811 18.7321L76.0756 17.4676C76.3456 17.1975 76.7835 17.1975 77.0536 17.4676Z" fill="#ED801D"/>
<path d="M46.9526 6.14H48.5978V8.32757H52.7741V6.14H54.4012V13.0824H46.9526V6.14ZM48.5436 15.6858V14.3841H58.7583V18.3795H50.2069V19.9343H59.3007V21.2541H48.5617V17.1502H57.1312V15.6858H48.5436ZM48.5978 11.7626H52.7741V9.5931H48.5978V11.7626ZM57.095 13.6609V5.47107H58.7583V8.8157H61.0363V10.1716H58.7583V13.6609H57.095Z" fill="#28292C"/>
<path d="M36.0324 6.592C38.5092 6.592 40.3171 8.16488 40.3171 10.3886C40.3171 12.6304 38.5092 14.1852 36.0324 14.1852C33.5194 14.1852 31.7115 12.6304 31.7115 10.3886C31.7115 8.16488 33.5194 6.592 36.0324 6.592ZM30.9521 16.6259C33.8267 16.6259 37.8403 16.6078 41.2753 16.0835L41.4019 17.2948C37.8584 17.9818 33.9894 17.9999 31.151 17.9999L30.9521 16.6259ZM33.3205 10.3886C33.3205 11.7988 34.4776 12.757 36.0324 12.757C37.551 12.757 38.7081 11.7988 38.7081 10.3886C38.7081 8.96036 37.551 8.02025 36.0324 8.02025C34.4776 8.02025 33.3205 8.96036 33.3205 10.3886ZM42.2697 21.4349V5.43494H43.9329V21.4349H42.2697Z" fill="#28292C"/>
<path d="M26.8841 7.54853H28.5293V14.4744H26.8841V7.54853ZM16.4163 13.3716V6.375H18.0434V11.9795C20.5925 11.9614 22.8524 11.7987 25.2569 11.2744L25.492 12.6484C22.8705 13.1908 20.4841 13.3716 17.718 13.3716H16.4163ZM18.1699 21.1818V15.1976H28.5293V21.1818H18.1699ZM19.779 19.862H26.9202V16.5174H19.779V19.862Z" fill="#28292C"/>
<path d="M1.84407 16.4993H3.48927V19.7174H12.8V21.0733H1.84407V16.4993ZM0 15.288V13.9682H6.38192V11.3648H8.00904V13.9682H14.4452V15.288H0ZM0.903955 11.0755C3.88701 10.5874 6.36384 8.6891 6.36384 6.53769V5.88684H8.02712V6.53769C8.02712 8.72526 10.504 10.6055 13.487 11.0755L12.8362 12.3772C10.3774 11.9253 8.18983 10.6236 7.19548 8.7795C6.20113 10.6236 4.03164 11.9253 1.5548 12.3772L0.903955 11.0755Z" fill="#28292C"/>
<path fill-rule="evenodd" clip-rule="evenodd" d="M30.5578 0.661393C30.8245 0.928017 30.8245 1.3603 30.5578 1.62692L29.3095 2.87525H30.0751C30.4521 2.87525 30.7578 3.18092 30.7578 3.55798C30.7578 3.93504 30.4521 4.24071 30.0751 4.24071H29.3095L30.5578 5.48904C30.8245 5.75566 30.8245 6.18794 30.5578 6.45457C30.2912 6.72119 29.8589 6.72119 29.5923 6.45457L28.344 5.20624V5.9718C28.344 6.34886 28.0383 6.65453 27.6613 6.65453C27.2842 6.65453 26.9785 6.34886 26.9785 5.9718V5.20624L25.7302 6.45457C25.4636 6.72119 25.0313 6.72119 24.7647 6.45457C24.498 6.18794 24.498 5.75566 24.7647 5.48904L26.013 4.24071H25.2474C24.8704 4.24071 24.5647 3.93504 24.5647 3.55798C24.5647 3.18092 24.8704 2.87525 25.2474 2.87525H26.013L24.7647 1.62692C24.498 1.3603 24.498 0.928017 24.7647 0.661393C25.0313 0.39477 25.4636 0.39477 25.7302 0.661393L26.9785 1.90972L26.9785 1.14416C26.9785 0.767095 27.2842 0.461426 27.6613 0.461426C28.0383 0.461426 28.344 0.767095 28.344 1.14416L28.344 1.90972L29.5923 0.661393C29.8589 0.39477 30.2912 0.39477 30.5578 0.661393Z" fill="#ED801D"/>
</svg>
