<svg width="20" height="20" viewBox="0 0 20 20" fill="none" xmlns="http://www.w3.org/2000/svg">
<path fill-rule="evenodd" clip-rule="evenodd" d="M17.4053 2.59458C18.087 3.27623 18.087 4.38141 17.4053 5.06306L14.2139 8.25453H16.1711C17.1351 8.25453 17.9166 9.03601 17.9166 10C17.9166 10.964 17.1351 11.7455 16.1711 11.7455H14.2139L17.4053 14.937C18.087 15.6186 18.087 16.7238 17.4053 17.4054C16.7237 18.0871 15.6185 18.0871 14.9369 17.4054L11.7454 14.214V16.1712C11.7454 17.1352 10.9639 17.9167 9.99992 17.9167C9.03592 17.9167 8.25444 17.1352 8.25444 16.1712V14.214L5.06297 17.4054C4.38132 18.0871 3.27614 18.0871 2.59449 17.4054C1.91284 16.7238 1.91284 15.6186 2.59449 14.937L5.78597 11.7455H3.82873C2.86473 11.7455 2.08325 10.964 2.08325 10C2.08325 9.03601 2.86473 8.25453 3.82873 8.25453H5.78597L2.59449 5.06306C1.91284 4.38141 1.91284 3.27623 2.59449 2.59458C3.27614 1.91293 4.38132 1.91293 5.06297 2.59458L8.25444 5.78606L8.25444 3.82882C8.25444 2.86482 9.03592 2.08334 9.99992 2.08334C10.9639 2.08334 11.7454 2.86482 11.7454 3.82882L11.7454 5.78606L14.9369 2.59458C15.6185 1.91293 16.7237 1.91293 17.4053 2.59458Z" fill="#362922"/>
</svg>
