<svg width="65" height="66" viewBox="0 0 65 66" fill="none" xmlns="http://www.w3.org/2000/svg">
<g clip-path="url(#clip0_11_946)">
<path d="M21.4329 19.1765L23.1798 20.1851C26.0495 21.842 27.0328 25.5115 25.3759 28.3813L23.8703 30.9891" stroke="#CE3C3C" stroke-width="2"/>
<path d="M38.3877 30.351V30.351C40.1484 31.3675 40.7517 33.619 39.7352 35.3797L35.8085 42.1809" stroke="#CE3C3C" stroke-width="2"/>
<path d="M25.9385 11.3726L16.9272 26.9805" stroke="#CE3C3C" stroke-width="2"/>
<path d="M23.7503 32.8408L22.0691 35.7527C20.6884 38.1442 21.5078 41.2022 23.8993 42.5829L30.1682 46.2022" stroke="#CE3C3C" stroke-width="2"/>
<path d="M40.5576 11.9627L28.1471 33.4583" stroke="#CE3C3C" stroke-width="2"/>
<path d="M53.7215 19.5628L39.4783 44.2327" stroke="#CE3C3C" stroke-width="2"/>
<path d="M34.7478 44.0182L28.1804 55.3933" stroke="#CE3C3C" stroke-width="2"/>
<path d="M37.5667 17.2715L47.6162 23.0736" stroke="#CE3C3C" stroke-width="2"/>
<path d="M45.2166 34.2936L54.0231 39.3781" stroke="#CE3C3C" stroke-width="2"/>
<path d="M35.0176 22.3567L41.6849 26.2061C43.228 27.097 42.9236 29.4088 41.2025 29.87L31.5559 32.4547" stroke="#CE3C3C" stroke-width="2"/>
<circle cx="47.8706" cy="43.9886" r="3.40756" transform="rotate(30 47.8706 43.9886)" stroke="#CE3C3C" stroke-width="2"/>
<path d="M17.3713 50.3956L19.5967 46.5411C20.149 45.5845 21.3722 45.2567 22.3288 45.809L25.8114 47.8197C26.768 48.372 27.0958 49.5952 26.5435 50.5517L24.1438 54.7081" stroke="#CE3C3C" stroke-width="2"/>
</g>
<rect x="24.5145" y="1.83136" width="45" height="46" rx="22.5" transform="rotate(30 24.5145 1.83136)" stroke="#CE3C3C" stroke-width="2"/>
<defs>
<clipPath id="clip0_11_946">
<rect x="24.1484" y="0.465332" width="47" height="48" rx="23.5" transform="rotate(30 24.1484 0.465332)" fill="white"/>
</clipPath>
</defs>
</svg>

