<svg width="65" height="66" viewBox="0 0 65 66" fill="none" xmlns="http://www.w3.org/2000/svg">
<path d="M21.5234 26.2109C21.224 26.4583 20.931 26.7383 20.6445 27.0508C20.3711 27.3503 20.0781 27.7995 19.7656 28.3984C19.5833 28.9193 19.4727 29.5378 19.4336 30.2539C19.3945 30.9701 19.401 31.6276 19.4531 32.2266C19.5182 32.9688 19.681 33.6914 19.9414 34.3945C20.2148 35.0846 20.5078 35.651 20.8203 36.0938C21.1979 36.6276 21.7122 37.0964 22.3633 37.5C23.0143 37.9036 23.6133 38.1445 24.1602 38.2227C24.3555 38.2878 24.5117 38.4049 24.6289 38.5742C24.7591 38.7435 24.7917 38.9258 24.7266 39.1211C24.6484 39.3294 24.5117 39.4727 24.3164 39.5508C24.1341 39.6289 23.9844 39.6419 23.8672 39.5898C23.2161 39.5247 22.4805 39.2904 21.6602 38.8867C20.8529 38.4701 20.1302 37.7734 19.4922 36.7969C19.2318 36.3802 18.9583 35.8073 18.6719 35.0781C18.3854 34.349 18.1576 33.4049 17.9883 32.2461C17.8971 31.3867 17.8906 30.5794 17.9688 29.8242C18.0469 29.069 18.2096 28.3659 18.457 27.7148C18.7044 27.0898 18.9714 26.6146 19.2578 26.2891C19.5573 25.9635 19.9284 25.6055 20.3711 25.2148C20.5404 25.0716 20.7552 24.9805 21.0156 24.9414C21.276 24.8893 21.4779 24.9609 21.6211 25.1562C21.7513 25.3125 21.8099 25.5013 21.7969 25.7227C21.7839 25.931 21.6927 26.0938 21.5234 26.2109ZM37.1289 34.1797C37.0117 33.3333 36.9206 32.4219 36.8555 31.4453C36.8034 30.4688 36.7969 29.1602 36.8359 27.5195C36.888 27.181 36.9596 26.9857 37.0508 26.9336C37.1419 26.8685 37.2786 26.8229 37.4609 26.7969C37.8776 26.7448 38.125 26.9336 38.2031 27.3633C38.1641 28.8477 38.1836 30.1302 38.2617 31.2109C38.3529 32.2917 38.4505 33.2812 38.5547 34.1797C38.5938 34.5833 38.4049 34.8242 37.9883 34.9023C37.5326 34.9935 37.2461 34.7526 37.1289 34.1797ZM26.6406 38.2031C26.6797 37.513 26.7839 36.8034 26.9531 36.0742C27.0052 35.7878 27.1029 35.6055 27.2461 35.5273C27.4023 35.4492 27.5781 35.4102 27.7734 35.4102C28.2552 35.4362 28.4766 35.6706 28.4375 36.1133C28.3984 36.569 28.3333 36.9076 28.2422 37.1289C28.1641 37.3503 28.1315 37.5846 28.1445 37.832C28.1315 38.1055 28.1966 38.3073 28.3398 38.4375C28.4961 38.5677 28.724 38.6263 29.0234 38.6133C31.0417 38.5742 32.5391 38.5547 33.5156 38.5547C34.5052 38.5547 35.6836 38.5807 37.0508 38.6328C37.4154 38.6458 37.7214 38.6914 37.9688 38.7695C38.2292 38.8346 38.4896 38.9193 38.75 39.0234C39.1536 39.2188 39.2839 39.4922 39.1406 39.8438C38.9583 40.2474 38.4831 40.3646 37.7148 40.1953C36.9596 40.026 36.1654 39.9284 35.332 39.9023C33.9128 39.8893 32.9167 39.8828 32.3438 39.8828C31.7839 39.8828 30.651 39.8828 28.9453 39.8828C28.2292 39.8828 27.6693 39.7591 27.2656 39.5117C26.875 39.2643 26.6667 38.8281 26.6406 38.2031ZM34.668 29.8438C34.668 30.0781 34.6615 30.2865 34.6484 30.4688C34.6354 30.638 34.6159 30.8789 34.5898 31.1914C34.4987 31.9857 34.1536 32.6367 33.5547 33.1445C32.9557 33.6393 32.0638 33.8867 30.8789 33.8867C29.2773 33.8607 28.1641 33.5352 27.5391 32.9102C26.9271 32.2721 26.6667 31.3867 26.7578 30.2539C26.8099 29.1732 27.1745 28.3398 27.8516 27.7539C28.5417 27.1549 29.5247 26.849 30.8008 26.8359C31.4518 26.8359 31.9987 26.9206 32.4414 27.0898C32.8971 27.2591 33.2812 27.4805 33.5938 27.7539C34.2448 28.3398 34.6029 29.0365 34.668 29.8438ZM28.125 30.3125C28.0469 31.1198 28.2161 31.6992 28.6328 32.0508C29.0625 32.4023 29.7396 32.5911 30.6641 32.6172C31.3932 32.7083 31.9727 32.5977 32.4023 32.2852C32.8451 31.9727 33.1185 31.5365 33.2227 30.9766C33.2617 30.7031 33.2682 30.3776 33.2422 30C33.2292 29.3359 32.9622 28.8477 32.4414 28.5352C31.9206 28.2096 31.3867 28.0469 30.8398 28.0469C30.0846 28.0469 29.4531 28.2096 28.9453 28.5352C28.4505 28.8477 28.1771 29.4401 28.125 30.3125ZM43.2422 25.9766C43.737 26.3672 44.1992 26.8034 44.6289 27.2852C45.0586 27.7669 45.3841 28.2292 45.6055 28.6719C45.918 29.2057 46.1719 29.9544 46.3672 30.918C46.5755 31.8815 46.6471 32.7148 46.582 33.418C46.4909 34.8242 46.2044 36.0872 45.7227 37.207C45.2409 38.3268 44.3359 39.4661 43.0078 40.625C42.8646 40.7943 42.6693 40.9049 42.4219 40.957C42.1745 41.0221 41.9727 40.9701 41.8164 40.8008C41.6732 40.6706 41.5885 40.4883 41.5625 40.2539C41.5495 40.0195 41.6211 39.8307 41.7773 39.6875C42.832 38.8151 43.6133 37.8906 44.1211 36.9141C44.6419 35.9375 44.9609 34.7461 45.0781 33.3398C45.1432 32.6888 45.0846 31.9727 44.9023 31.1914C44.7201 30.4102 44.5052 29.8242 44.2578 29.4336C43.9844 29.0169 43.6914 28.6263 43.3789 28.2617C43.0664 27.8971 42.7083 27.5521 42.3047 27.2266C42.1745 27.0964 42.0898 26.9206 42.0508 26.6992C42.0117 26.4779 42.0638 26.2956 42.207 26.1523C42.3112 25.9701 42.4674 25.8594 42.6758 25.8203C42.8971 25.7812 43.0859 25.8333 43.2422 25.9766Z" fill="#28292C"/>
<g clip-path="url(#clip0_210_4772)">
<path d="M21.4329 19.1766L23.1798 20.1852C26.0495 21.8421 27.0328 25.5116 25.3759 28.3813L23.8703 30.9892" stroke="#CE3C3C" stroke-width="2"/>
<path d="M38.3878 30.351V30.351C40.1485 31.3676 40.7518 33.619 39.7352 35.3798L35.8086 42.181" stroke="#CE3C3C" stroke-width="2"/>
<path d="M25.9385 11.3727L16.9272 26.9806" stroke="#CE3C3C" stroke-width="2"/>
<path d="M23.7503 32.8409L22.0691 35.7528C20.6884 38.1443 21.5078 41.2022 23.8993 42.5829L30.1682 46.2023" stroke="#CE3C3C" stroke-width="2"/>
<path d="M40.5576 11.9628L28.1471 33.4584" stroke="#CE3C3C" stroke-width="2"/>
<path d="M53.7213 19.5629L39.4782 44.2327" stroke="#CE3C3C" stroke-width="2"/>
<path d="M34.7478 44.0182L28.1803 55.3933" stroke="#CE3C3C" stroke-width="2"/>
<path d="M37.5667 17.2715L47.6163 23.0737" stroke="#CE3C3C" stroke-width="2"/>
<path d="M45.2166 34.2936L54.0231 39.3781" stroke="#CE3C3C" stroke-width="2"/>
<path d="M35.0175 22.3568L41.6848 26.2062C43.2279 27.0971 42.9236 29.4089 41.2025 29.8701L31.5558 32.4549" stroke="#CE3C3C" stroke-width="2"/>
<circle cx="47.8707" cy="43.9887" r="3.40756" transform="rotate(30 47.8707 43.9887)" stroke="#CE3C3C" stroke-width="2"/>
<path d="M17.3712 50.3956L19.5966 46.5411C20.1489 45.5845 21.372 45.2568 22.3286 45.8091L25.8112 47.8197C26.7678 48.372 27.0956 49.5952 26.5433 50.5518L24.1436 54.7081" stroke="#CE3C3C" stroke-width="2"/>
</g>
<rect x="24.5144" y="1.83142" width="45" height="46" rx="22.5" transform="rotate(30 24.5144 1.83142)" stroke="#CE3C3C" stroke-width="2"/>
<defs>
<clipPath id="clip0_210_4772">
<rect x="24.1484" y="0.465393" width="47" height="48" rx="23.5" transform="rotate(30 24.1484 0.465393)" fill="white"/>
</clipPath>
</defs>
</svg>
