<svg width="82" height="73" viewBox="0 0 82 73" fill="none" xmlns="http://www.w3.org/2000/svg">
<path d="M36.3516 0.757812H45.3513C48.7073 0.757812 51.2273 3.17175 53.4451 5.30286L53.4561 5.31329C54.719 6.52185 56.0229 7.76953 57.1641 8.24066C58.2131 8.67694 59.9504 8.70343 61.6348 8.72913L61.6572 8.72943C64.7913 8.77759 68.3401 8.83215 70.8086 11.3007C73.2773 13.7692 73.3318 17.3181 73.3799 20.4522L73.3801 20.4646L73.3804 20.4745C73.406 22.1589 73.4324 23.8963 73.8687 24.9453C74.3376 26.084 75.5757 27.3778 76.7788 28.6351L76.8066 28.6642C78.9377 30.8853 81.3516 33.4021 81.3516 36.7578C81.3516 40.1135 78.9377 42.6335 76.8066 44.8514L76.7961 44.8623C75.5876 46.1254 74.3398 47.4293 73.8687 48.5703C73.4324 49.6194 73.406 51.3567 73.3804 53.0411L73.3801 53.051L73.3799 53.0635C73.3318 56.1975 73.2773 59.7465 70.8086 62.215C68.3401 64.6835 64.7913 64.738 61.6572 64.7863L61.6448 64.7864L61.635 64.7865C59.9504 64.8123 58.2131 64.8387 57.1641 65.275C56.0254 65.7439 54.7314 66.9818 53.4744 68.1849L53.4451 68.2128C51.2241 70.3439 48.7073 72.7578 45.3516 72.7578H36.3516V67.3535C35.3794 66.4497 34.4116 65.6353 33.5391 65.275C32.49 64.8387 30.7527 64.8123 29.0681 64.7865L29.0583 64.7864L29.0459 64.7863C25.9119 64.738 22.363 64.6835 19.8945 62.215C17.4258 59.7465 17.3713 56.1975 17.3232 53.0634L17.3228 53.041C17.2971 51.3567 17.2708 49.6194 16.8345 48.5703C16.3657 47.4321 15.1284 46.1388 13.926 44.882L13.9246 44.8805L13.8965 44.8514C11.7654 42.6304 9.35156 40.1135 9.35156 36.7578C9.35156 33.4021 11.7654 30.8821 13.8965 28.6642L13.907 28.6533C15.1155 27.3903 16.3633 26.0863 16.8345 24.9453C17.2708 23.8963 17.2971 22.159 17.3228 20.4746L17.323 20.4646L17.3259 20.3232C17.3889 17.2211 17.4597 13.7354 19.8945 11.3007C22.363 8.83215 25.9119 8.77759 29.0459 8.72943L29.0696 8.72906C30.7534 8.70343 32.4968 8.67688 33.5391 8.24066C34.4138 7.88043 35.3804 7.06616 36.3516 6.16254V0.757812Z" fill="url(#paint0_linear_1124_1336)"/>
<path fill-rule="evenodd" clip-rule="evenodd" d="M67.7786 28.6351L67.8066 28.6642C69.9376 30.8853 72.3516 33.4021 72.3516 36.7578C72.3516 40.1135 69.9376 42.6335 67.8066 44.8514L67.7961 44.8623C66.5876 46.1253 65.3398 47.4293 64.8687 48.5703C64.4324 49.6193 64.406 51.3567 64.3803 53.0411L64.3801 53.051L64.38 53.0634C64.3318 56.1975 64.2772 59.7464 61.8087 62.215C59.3402 64.6835 55.7913 64.738 52.6572 64.7862L52.6448 64.7864L52.6349 64.7865C50.9505 64.8122 49.2131 64.8387 48.1641 65.275C47.0254 65.7438 45.7316 66.9818 44.4743 68.1849L44.4451 68.2128C42.2241 70.3439 39.7073 72.7578 36.3516 72.7578C32.9958 72.7578 30.4758 70.3439 28.258 68.2128L28.247 68.2023C26.984 66.9938 25.6801 65.7461 24.5391 65.275C23.49 64.8387 21.7526 64.8122 20.0682 64.7865L20.0583 64.7864L20.046 64.7862C16.9119 64.738 13.363 64.6835 10.8944 62.215C8.42588 59.7464 8.37134 56.1975 8.32318 53.0634L8.32299 53.051L8.32284 53.0411C8.29717 51.3567 8.2707 49.6193 7.83442 48.5703C7.36554 47.4316 6.12753 46.1378 4.92445 44.8805L4.89656 44.8514C2.76549 42.6303 0.351562 40.1135 0.351562 36.7578C0.351562 33.4021 2.76549 30.8821 4.89656 28.6642L4.90703 28.6533C6.11556 27.3903 7.36328 26.0863 7.83442 24.9453C8.2707 23.8963 8.29717 22.159 8.32284 20.4746L8.32299 20.4646C8.32395 20.4176 8.32491 20.3704 8.32587 20.3232C8.38888 17.2211 8.45969 13.7354 10.8944 11.3007C13.363 8.83213 16.9119 8.77759 20.046 8.72943L20.0583 8.72924L20.0695 8.72907C21.7535 8.70341 23.4967 8.67685 24.5391 8.24067C25.6778 7.7718 26.9715 6.5338 28.2288 5.33073L28.258 5.30281C30.4791 3.17174 32.9958 0.757812 36.3516 0.757812C39.7073 0.757812 42.2273 3.17174 44.4451 5.30281L44.4561 5.31326C45.7191 6.52179 47.0231 7.76953 48.1641 8.24067C49.2131 8.67695 50.9504 8.70342 52.6348 8.72909L52.6448 8.72924L52.6571 8.72943C55.7913 8.77759 59.3402 8.83213 61.8087 11.3007C64.2772 13.7692 64.3318 17.3181 64.38 20.4522L64.3801 20.4646L64.3803 20.4745C64.406 22.1589 64.4324 23.8963 64.8687 24.9453C65.3376 26.084 66.5756 27.3778 67.7786 28.6351Z" fill="url(#paint1_linear_1124_1336)"/>
<rect x="48.9448" y="25.8477" width="5" height="30.0046" rx="2.5" transform="rotate(45 48.9448 25.8477)" fill="white"/>
<rect x="23.4092" y="35.6738" width="16.1081" height="5" rx="2.5" transform="rotate(45 23.4092 35.6738)" fill="white"/>
<defs>
<linearGradient id="paint0_linear_1124_1336" x1="45.3516" y1="0.757812" x2="45.3516" y2="72.7578" gradientUnits="userSpaceOnUse">
<stop stop-color="#C8501D"/>
<stop offset="1" stop-color="#693826"/>
</linearGradient>
<linearGradient id="paint1_linear_1124_1336" x1="36.3516" y1="0.757813" x2="36.3516" y2="72.7578" gradientUnits="userSpaceOnUse">
<stop stop-color="#FF4E02"/>
<stop offset="1" stop-color="#CA501B"/>
</linearGradient>
</defs>
</svg>
