<svg viewBox="0 0 74 24" fill="none" xmlns="http://www.w3.org/2000/svg">
<path fill-rule="evenodd" clip-rule="evenodd" d="M44.9119 17.0929V17.3043H51.382H57.8522V17.0929H57.831C57.3236 17.0929 56.9148 16.9378 56.6047 16.6277C56.2946 16.3176 56.1395 15.9088 56.1395 15.4013V9.18492C56.4919 8.55059 56.9007 8.05017 57.3659 7.68367C57.8451 7.30308 58.3033 7.11278 58.7402 7.11278C59.1913 7.11278 59.5508 7.32422 59.8186 7.74711C60.1005 8.16999 60.2415 8.73384 60.2415 9.43865V15.4013C60.2415 15.9088 60.0864 16.3176 59.7763 16.6277C59.4662 16.9378 59.0574 17.0929 58.5499 17.0929H58.5288V17.3043H64.9778V17.0929H64.9567C64.4492 17.0929 64.0404 16.9378 63.7303 16.6277C63.4202 16.3176 63.2651 15.9088 63.2651 15.4013V9.4175V9.31178C63.2651 9.2695 63.2581 9.23425 63.244 9.20606C63.5964 8.58583 64.0122 8.08542 64.4915 7.70482C64.9708 7.31012 65.4289 7.11278 65.8659 7.11278C66.3169 7.11278 66.6835 7.32422 66.9654 7.74711C67.2473 8.16999 67.3883 8.73384 67.3883 9.43865V15.4013C67.3883 15.9088 67.2332 16.3176 66.9231 16.6277C66.613 16.9378 66.2042 17.0929 65.6967 17.0929H65.6756V17.3043H72.1246V17.0929H72.1034C71.596 17.0929 71.1872 16.9378 70.8771 16.6277C70.5669 16.3176 70.4119 15.9088 70.4119 15.4013V9.65009C70.4119 8.63517 70.1229 7.81759 69.545 7.19736C68.9811 6.57712 68.227 6.26701 67.2825 6.26701C66.4227 6.26701 65.6192 6.49255 64.8721 6.94362C64.1391 7.3947 63.5752 8.00084 63.1805 8.76203C63.0255 8.00084 62.6801 7.3947 62.1445 6.94362C61.6088 6.49255 60.9393 6.26701 60.1358 6.26701C59.3041 6.26701 58.5147 6.49255 57.7676 6.94362C57.0205 7.3947 56.4637 7.98674 56.0972 8.71974L56.0761 5.97099H55.8646C55.7941 6.06966 55.6814 6.16833 55.5263 6.26701C55.3713 6.35158 55.1316 6.42206 54.8074 6.47845C54.4973 6.53483 54.0533 6.56303 53.4753 6.56303H51.382V6.77447C52.0868 6.77447 52.545 6.92248 52.7564 7.2185C52.982 7.51452 53.0947 7.93036 53.0947 8.46601V15.4013C53.0947 15.9088 52.9397 16.3176 52.6296 16.6277C52.3194 16.9378 51.9106 17.0929 51.4032 17.0929L51.382 17.0929H51.3609C50.8534 17.0929 50.4446 16.9378 50.1345 16.6277C49.8244 16.3176 49.6694 15.9088 49.6694 15.4013V5.75954H49.4579C49.317 5.98508 49.0703 6.17538 48.7179 6.33044C48.3373 6.48549 47.7875 6.56302 47.0686 6.56302H46.1198C45.9276 6.56302 45.7356 6.54935 45.5461 6.51782C45.2107 6.46203 44.902 6.40213 44.6783 6.35872C44.5689 6.33749 44.4798 6.32021 44.418 6.30929C44.1783 6.267 43.9528 6.24586 43.7413 6.24586C43.1211 6.24586 42.5855 6.40797 42.1344 6.73218C41.6974 7.0423 41.3309 7.42994 41.0349 7.89511C40.753 8.36029 40.5204 8.80432 40.3371 9.2272L40.316 5.75954H40.2103C40.0552 5.99918 39.7874 6.19652 39.4068 6.35158C39.0262 6.49254 38.4623 6.56302 37.7152 6.56302H35.6219V6.77447C36.3268 6.77447 36.7849 6.92248 36.9963 7.2185C37.2219 7.51452 37.3346 7.93035 37.3346 8.46601V15.4013C37.3346 15.9088 37.1796 16.3176 36.8695 16.6277C36.5593 16.9378 36.1506 17.0929 35.6431 17.0929H35.6219V17.3043H42.0921V17.0929H42.0709C41.5635 17.0929 41.1547 16.9378 40.8446 16.6277C40.5345 16.3176 40.3794 15.9088 40.3794 15.4013V9.75581C40.5486 9.34702 40.7459 8.99462 40.9714 8.6986C41.2111 8.40258 41.5705 8.25457 42.0498 8.25457C42.3317 8.25457 42.6559 8.31095 43.0224 8.42372C43.403 8.53649 43.8471 8.73384 44.3545 9.01576L45.1563 6.77863C45.7421 6.80452 46.0953 6.95114 46.2863 7.2185C46.5118 7.51452 46.6246 7.93035 46.6246 8.46601V15.4013C46.6246 15.9088 46.4695 16.3176 46.1594 16.6277C45.8493 16.9378 45.4405 17.0929 44.933 17.0929H44.9119ZM46.8572 3.94113C47.1955 4.26534 47.6184 4.42745 48.1258 4.42745C48.6192 4.42745 49.028 4.2583 49.3522 3.91999C49.6905 3.58168 49.8596 3.16584 49.8596 2.67248C49.8596 2.17911 49.6905 1.76327 49.3522 1.42496C49.028 1.08665 48.6192 0.9175 48.1258 0.9175C47.6184 0.9175 47.1955 1.08665 46.8572 1.42496C46.533 1.74917 46.3708 2.16501 46.3708 2.67248C46.3708 3.17994 46.533 3.60282 46.8572 3.94113ZM28.0628 16.8391C28.824 17.3184 29.691 17.5581 30.6636 17.5581C31.4671 17.5581 32.2142 17.403 32.9049 17.0929C33.5956 16.7828 34.1947 16.3528 34.7022 15.8031C35.2096 15.2533 35.5832 14.619 35.8228 13.9001L35.6325 13.8367C35.2519 14.4005 34.7515 14.8516 34.1313 15.1899C33.5251 15.5141 32.8837 15.6762 32.2071 15.6762C31.0935 15.6762 30.2055 15.2322 29.5429 14.3441C28.8804 13.442 28.5492 12.2438 28.5492 10.7496V10.6439H35.6536L35.6325 10.3267C35.5761 9.52323 35.3435 8.81842 34.9347 8.21228C34.54 7.59205 34.0044 7.11278 33.3278 6.77447C32.6653 6.43616 31.9041 6.26701 31.0442 6.26701C30.0152 6.26701 29.0919 6.50664 28.2743 6.98591C27.4708 7.45109 26.8365 8.10656 26.3713 8.95233C25.9061 9.7981 25.6735 10.7848 25.6735 11.9125C25.6735 13.012 25.885 13.9917 26.3079 14.8516C26.7308 15.6974 27.3157 16.3599 28.0628 16.8391ZM32.8626 10.3267H28.5703C28.6267 9.18492 28.8593 8.27571 29.2681 7.5991C29.6769 6.92248 30.1914 6.58417 30.8116 6.58417C31.46 6.58417 31.9604 6.92953 32.3128 7.62024C32.6793 8.31095 32.8626 9.21311 32.8626 10.3267ZM17.667 17.6003C16.8072 17.6003 16.1164 17.3678 15.5949 16.9026C15.0733 16.4374 14.8125 15.8242 14.8125 15.063C14.8125 14.7388 14.8689 14.4357 14.9817 14.1538C15.0945 13.8578 15.3059 13.5688 15.616 13.2869C15.9402 13.005 16.3843 12.716 16.9481 12.42C17.512 12.1099 18.2591 11.7857 19.1894 11.4474L21.1558 10.7284V9.14263C21.1558 8.33914 21.029 7.70481 20.7752 7.23964C20.5215 6.76037 20.1691 6.52073 19.718 6.52073C19.1824 6.53483 18.7242 6.88724 18.3436 7.57795C17.9771 8.26866 17.7305 9.2272 17.6036 10.4536L15.32 9.14263C15.5596 8.56468 15.9261 8.05722 16.4195 7.62024C16.9129 7.18325 17.4767 6.84495 18.111 6.60531C18.7595 6.36568 19.4361 6.24586 20.1409 6.24586C21.3391 6.24586 22.3117 6.58417 23.0588 7.26079C23.82 7.92331 24.2006 8.83251 24.2006 9.9884V15.0842C24.2006 15.9017 24.4755 16.3105 25.0252 16.3105C25.3494 16.3105 25.6666 16.1343 25.9767 15.7819L26.1459 15.9299C25.7794 16.4233 25.3353 16.825 24.8138 17.1352C24.2922 17.4453 23.7848 17.6003 23.2914 17.6003C22.7557 17.6003 22.2906 17.4171 21.8959 17.0506C21.5153 16.6841 21.2756 16.1978 21.177 15.5916C20.4863 16.2964 19.8801 16.811 19.3586 17.1352C18.8511 17.4453 18.2873 17.6003 17.667 17.6003ZM19.2528 16.2894C19.563 16.2894 19.859 16.2119 20.1409 16.0568C20.4369 15.9017 20.7682 15.648 21.1347 15.2956L21.1558 11.0033L20.3101 11.3205C19.5911 11.5883 19.0414 11.8632 18.6608 12.1451C18.2802 12.4129 18.0124 12.716 17.8573 13.0543C17.7164 13.3926 17.6459 13.7803 17.6459 14.2173C17.6459 14.8234 17.7939 15.3238 18.0899 15.7185C18.4 16.0991 18.7877 16.2894 19.2528 16.2894ZM1.33337 17.0929V17.3043H7.80352V17.0929H7.78238C7.27492 17.0929 6.86613 16.9378 6.55601 16.6277C6.24589 16.3176 6.09084 15.9088 6.09084 15.4013V9.18492C6.44324 8.55059 6.85203 8.05017 7.31721 7.68367C7.79648 7.30307 8.2546 7.11278 8.69158 7.11278C9.14266 7.11278 9.50211 7.32422 9.76994 7.7471C10.0519 8.16999 10.1928 8.73384 10.1928 9.43865V15.4013C10.1928 15.9088 10.0378 16.3176 9.72765 16.6277C9.41754 16.9378 9.00875 17.0929 8.50129 17.0929H8.48014V17.3043H14.9291V17.0929H14.908C14.4005 17.0929 13.9917 16.9378 13.6816 16.6277C13.3715 16.3176 13.2165 15.9088 13.2165 15.4013V9.65009C13.2165 8.63516 12.9275 7.81758 12.3495 7.19735C11.7857 6.57712 11.0316 6.267 10.0871 6.267C9.25543 6.267 8.46604 6.49254 7.71895 6.94362C6.97185 7.3947 6.41505 7.98674 6.04855 8.71974L6.0274 5.75954H5.81596C5.675 5.98508 5.42832 6.17538 5.07591 6.33044C4.69531 6.48549 4.14556 6.56302 3.42666 6.56302H1.33337V6.77447C2.03818 6.77447 2.49631 6.92248 2.70775 7.2185C2.93329 7.51452 3.04606 7.93035 3.04606 8.46601V15.4013C3.04606 15.9088 2.891 16.3176 2.58089 16.6277C2.27077 16.9378 1.86198 17.0929 1.35452 17.0929H1.33337Z" fill="#9E9E9E"/>
</svg>
